<svg
   viewBox="0 0 72.950241 25.589434"
   version="1.1"
   id="MountainB"
   xml:space="preserve"
   xmlns="http://www.w3.org/2000/svg"
   xmlns:svg="http://www.w3.org/2000/svg"><path
     d="m 2.7086622e-6,1.1126886 c 0,0 0.5936800013378,-0.03958 0.7915800013378,-0.03958 0.19789,0 0.79156999,0.554102 1.06861999,0.435365 0.27706,-0.118735 1.38526,-0.31663 1.58315,-0.277051 0.1979,0.03958 0.51453,0.31663 0.91031,0.593682 0.39579,0.277051 0.94989,1.068626 1.22694,1.068626 0.27706,0 1.3061,-0.03958 1.82063,0.03958 0.51452,0.07916 2.13725,0.514524 2.13725,0.514524 0,0 0.7124193,0.474945 1.3060993,0.474945 0.59368,0 2.29556,0.237472 2.81009,0.395787 0.51452,0.158315 2.05809,0.356209 2.45388,0.395787 0.39579,0.03958 4.31408,-1.741464 4.67029,-1.701885 0.35621,0.03958 2.65177,0.633261 2.84967,0.751996 0.19789,0.118737 1.34568,0.949889 1.62272,1.068626 0.27706,0.118736 1.02905,0.554103 1.58315,0.395787 0.55411,-0.158315 2.49347,-1.781043 3.79956,-1.781043 1.3061,0 2.37473,-0.870732 2.73093,-0.94989 0.35622,-0.07916 2.29557,-0.395787 2.29557,-0.395787 0,0 1.3061,0.554103 1.38526,0.03958 0.0792,-0.514524 0,-1.38525706 0.35621,-1.26652006 0.35621,0.118736 2.13725,0.51452406 2.33514,0.63325906 0.1979,0.118737 4.27451,1.781044 4.86818,1.899781 0.59369,0.118735 3.04757,0.554101 3.56209,0.633259 0.51453,0.07916 3.32462,0.593681 3.48293,0.672838 0.15832,0.07916 1.3061,0.672839 1.74147,0.277051 0.43536,-0.395787 2.17683,-2.018516 2.17683,-2.018516 0,0 5.30354,0.910312 5.73891,0.910312 0.43537,0 3.20588,-0.118737 3.56208,-0.356209 0.35621,-0.237472 1.62273,-1.741464 2.29557,-2.17683 0.67284,-0.43536606 1.62273,-1.42483406 2.29557,-1.34567806 0.67283,0.07916 3.44335,0.593682 3.44335,0.593682 l 0.0462,24.93529846 -72.93252929,0.05597 z"
     id="path23" /></svg>
