<svg
   viewBox="0 0 95.562698 25.112299"
   version="1.1"
   id="MountainC"
   xml:space="preserve"
   xmlns="http://www.w3.org/2000/svg"
   xmlns:svg="http://www.w3.org/2000/svg"><path
     d="m 3.2927405,0.38014885 3.951291,0.512204 c 0,0 1.975645,1.09758105 2.48785,0.73172005 0.5122055,-0.36586 3.2195705,-0.585375 3.5122595,-0.65854805 0.292687,-0.07317 1.317097,-1.097581 2.341505,-0.951237 1.024408,0.146344 2.561021,0.219516 3.21957,0.512205 0.658548,0.292688 2.195162,1.75612905 2.487851,1.97564405 0.292687,0.219518 2.121988,0.951238 2.414677,1.097582 0.292688,0.146344 1.243926,1.902474 1.829301,1.756129 0.585376,-0.146344 2.561022,-0.292688 3.585431,-0.365859 1.024408,-0.07317 2.341505,-1.39027 4.390325,-1.536614 2.048814,-0.146344 4.60984,-2.56102205 5.487901,-2.414677 0.878068,0.146343 4.317149,0.146343 5.048874,0.365859 0.731719,0.219516 3.073224,1.39027 4.170806,1.317098 1.097581,-0.07317 3.512258,0.585376 4.902525,0.219516 1.390272,-0.36586 5.195212,-2.19516205 5.926932,-2.12199005 0.73173,0.07317 4.68302,1.97564605 5.48791,1.97564605 0.80489,0 9.14651,-0.365861 9.14651,-0.365861 0,0 2.48785,-0.512204 3.6586,-0.804893 1.17075,-0.292688 3.87812,-1.68295705 4.24398,-1.60978505 0.36586,0.07317 2.04882,0.804893 3.1464,0.804893 1.09758,0 3.58543,-0.658549 4.53667,-0.585377 0.951231,0.07317 3.512251,0.219517 4.536661,0.292689 1.02441,0.07317 1.75613,0 1.75613,0 V 25.112302 L -1.5339189e-6,24.892792 0.23244946,0.92748185 c 1.01429904,-0.206963 2.04002204,-0.368786 3.06029104,-0.547333 z"
     id="path22" /></svg>
