<svg
   width="82.629799mm"
   height="17.641937mm"
   viewBox="0 0 82.629799 17.641937"
   version="1.1"
   id="MountainD"
   xml:space="preserve"
   xmlns="http://www.w3.org/2000/svg"
   xmlns:svg="http://www.w3.org/2000/svg"><path
     d="m 0.12664173,0.07915361 0.88644997,0.569859 h 1.96285 l 0.63318,0.253272 c 0,0 0.37991,0.94976699 0.63318,0.88644899 0.25327,-0.06332 0.94977,-0.06332 0.94977,-0.06332 l 0.75981,0.189953 0.63318,0.506542 1.0764,0.379908 0.63318,0.189953 c 0,0 0.31659,-0.443225 0.56986,-0.443225 0.25327,0 1.5196303,0.569861 1.8995403,0.506543 0.37991,-0.06332 1.20304,0.06332 1.20304,0.06332 0,0 0.0633,-0.443224 0.3799,-0.443224 0.31659,0 1.32968,0.379906 1.32968,0.379906 0,0 0.82313,0.126636 1.0764,-0.06332 0.25327,-0.189953 1.13972,-0.443225 1.13972,-0.443225 l 1.01309,0.06332 c 0,0 0.63318,0.189954 0.82313,-0.126636 0.18996,-0.316588 0.44323,-0.506543 0.6965,-0.506543 0.25327,0 1.32967,0.253272 1.32967,0.253272 0,0 0.37991,0.126636 0.63318,0.06332 0.25327,-0.06332 1.32968,0 1.32968,0 0,0 0.50654,-0.253271 0.82313,-0.31659 0.31659,-0.06332 1.26635,-0.189953 1.26635,-0.189953 l 0.56986,-0.633178 1.20304,-0.126636 1.83622,0.633179 1.07641,0.126635 c 0,0 0.31658,-0.316588 0.94976,-0.189953 0.63318,0.126636 2.08949,0.569861 2.08949,0.569861 0,0 -0.25327,0.379906 0.75981,0.506543 1.01309,0.126635 1.393,0.189953 1.83622,0.126635 0.44323,-0.06332 0.94977,-0.379908 1.26636,0 0.31659,0.379907 0.56986,0.633179 0.82313,0.759814 0.25327,0.126636 0.88645,0.379908 1.45631,0.569861 0.56986,0.189953 1.26636,0.253271 1.70958,0.379906 0.44323,0.126637 1.45631,0.189955 1.58295,0.443225 0.12664,0.253271 0.3799,0.633179 0.75981,0.443226 0.37991,-0.189955 1.20305,-0.379908 1.45631,-0.506543 0.25328,-0.126636 0.94977,-0.379908 0.94977,-0.379908 l 1.64626,0.569861 1.393,-0.189953 c 0,0 0.44322,-0.126636 0.69649,-0.126636 0.25328,0 1.13972,0.189953 1.393,0.253271 0.25327,0.06332 1.58294,-0.253271 1.58294,-0.253271 0,0 -0.50654,-0.569861 0.44323,-0.506543 0.94977,0.06332 2.08949,0.189953 2.08949,0.189953 l 0.69649,-0.316588 1.45631,0.253271 c 0,0 0.6965,0.06332 1.13973,-0.189954 0.44322,-0.25327 0.82312,-0.189953 1.0764,-0.443225 0.25326,-0.25327 0.69649,-0.56986 1.13972,-0.56986 0.44322,0 1.13972,0.379907 1.20303,-0.06332 0.0633,-0.443224 -0.0633,-0.949767 0.31659,-1.076403 0.37991,-0.126636 1.01309,-0.316589 1.01309,-0.316589 0,0 0.56986,-0.189954 0.82313,-0.189954 0.25327,0 0.75981,0 0.75981,0 0,0 0.25328,-0.82313099 0.50655,-0.82313099 0.25327,0 0.75981,-0.126637 0.75981,-0.126637 0,0 0.50655,0.379908 0.75982,0.379908 0.25327,0 1.20304,0 1.20304,0 l 0.82313,-0.31659 0.56986,-0.633179 c 0,0 0.63318,-0.06332 0.88645,0.06332 0.25327,0.126635 1.26636,0.126635 1.26636,0.126635 h 0.75981 l 0.12664,0.633178 0.82313,-0.443225 0.63317,0.94976699 c 0,0 0.56987,0.126637 0.88645,0.189954 0.31659,0.06332 0.94977,0.316589 0.94977,0.316589 0,0 0.50654,-0.379906 0.75982,-0.506543 0.25327,-0.126636 0.3799,-0.189953 0.94977,-0.316589 0.56986,-0.12663499 0.94976,-0.63317799 1.26635,-0.50654199 0.31659,0.126635 0.75982,0.189954 0.75982,0.189954 0,0 0.56986,-0.696498 0.88644,-0.696498 0.31659,0 1.01309,0.06332 1.26636,0.189955 0.25327,0.126635 0.25327,0.126635 0.88645,0.189953 0.63318,0.06332 0.94977,-0.126635 0.94977,-0.126635 h 0.50654 l 0.44323,-0.126636 -0.0633,17.28576739 c 0,0 -82.62978027,0.37991 -82.566460265807,0.12664 C 0.06333173,17.301607 0.12666173,0.07915261 0.12666173,0.07915261 Z"
     id="path21" /></svg>
