<svg
   width="90.777016mm"
   height="27.62995mm"
   viewBox="0 0 90.777016 27.62995"
   version="1.1"
   xml:space="preserve"
   xmlns="http://www.w3.org/2000/svg"
   xmlns:svg="http://www.w3.org/2000/svg"><defs
     id="defs1" /><path
     style="display:inline;fill:#000000;fill-opacity:1;stroke-width:0.0710973;stroke-dasharray:none"
     d="M -6.3124016e-7,4.1900849 0.36971337,4.3872659 l 0.271123,0.221828 0.39436203,0.147885 0.443656,0.443657 0.492951,0.123238 1.035199,-0.419009 0.690132,-0.665485 0.443656,0.123238 0.443657,0.517599 0.961255,0.862665 c 0,0 0.419009,0.147885 0.566894,0.147885 0.147886,0 0.71478,-0.07394 0.81337,-0.09859 0.09859,-0.02465 1.281674,-0.320418 1.281674,-0.320418 l 0.566895,0.09859 0.172533,0.566895 0.616189,-0.123238 1.9225106,-0.764076 -0.02465,0.345067 1.010551,0.0493 1.183083,0.0493 c 0,0 1.010551,-0.419009 1.207731,-0.419009 0.197181,0 1.035199,-0.369713 1.035199,-0.369713 l 0.665484,-0.320419 0.369714,-0.172533 0.616189,0.295771 0.468304,0.862665 0.468304,0.04929 0.788722,0.71478 0.813371,0.221828 0.320418,0.221829 0.419009,0.07394 0.246475,0.172533 0.468304,0.02465 c 0,0 0.147886,0.246476 0.246477,0.271123 0.09859,0.02465 1.01055,0.295771 1.01055,0.295771 v 0.345066 l 0.961255,0.566894 0.961256,-0.443656 0.788722,-0.394361 0.690132,-0.221828 0.542247,-0.566894 1.52815,-1.035199 0.788722,-0.788722 h 0.369714 c 0,0 0.246476,0.221828 0.345066,0.320418 0.09859,0.09859 0.345066,0.739428 0.443656,0.764075 0.09859,0.02465 0.394362,0.443657 0.394362,0.443657 l 0.640837,0.147885 0.221828,0.542247 0.246476,0.29577 0.394361,0.492952 1.947159,-0.788722 0.09859,-0.665485 c 0,0 0.517599,-0.246476 0.640837,-0.271123 0.123237,-0.02465 2.587995,-1.700683 2.785177,-1.749978 0.197179,-0.0493 1.035196,-0.443657 1.133786,-0.492951 0.09859,-0.0493 0.517601,-0.936608 0.517601,-0.936608 0,0 1.330968,-0.5176 1.626739,-0.61619 0.295772,-0.09859 2.415462,-1.109141 2.538699,-1.133789 0.123238,-0.02465 1.109142,-0.46830297 1.232379,-0.54224597 0.123238,-0.07394 0.81337,-0.492952 0.81337,-0.492952 L 45.548716,1.9341197e-6 c 0,0 0.172531,0.4436559958803 0.419009,0.4683039958803 0.246475,0.02465 0.690132,0.221828 0.690132,0.221828 l 0.468303,0.78872297 0.197181,0.616189 c 0,0 1.183083,1.183084 1.281673,1.257027 0.09859,0.07394 0.862666,0.714779 0.961255,0.788722 0.09859,0.07394 1.355619,0.419009 1.355619,0.419009 l 0.246475,0.542246 0.764074,0.41901 0.739429,0.591541 1.700681,1.676035 c 0,0 0.936607,0.246476 1.109141,0.221829 0.172534,-0.02465 1.355617,-0.542247 1.478857,-0.542247 0.123237,0 0.887311,-0.443657 1.059845,-0.443657 0.172534,0 0.665484,-0.345066 0.887311,-0.468303 0.22183,-0.123238 0.542247,-0.665485 0.911962,-0.665485 0.369713,0 1.035197,-0.246476 1.035197,-0.246476 0,0 0.517599,0.0493 0.616191,0.0493 0.09859,0 0.838015,-0.172533 0.838015,-0.172533 0,0 0.419009,-0.690133 0.517601,-0.714781 0.09859,-0.02465 0.862664,-0.221827 0.862664,-0.221827 l 0.591542,-0.591542 0.32042,-0.221829 0.468302,0.394361 c 0,0 0.12324,0.566895 0.517601,0.887314 0.394361,0.320418 0.887312,0.862664 0.887312,0.862664 l 0.369712,-0.320418 c 0,0 0.09859,0.271123 0.246478,0.221828 0.147883,-0.04929 1.133787,-0.19718 1.133787,-0.19718 0,0 0.566895,-0.246476 0.788724,-0.221829 0.221828,0.02465 0.468303,0.0493 0.468303,0.0493 0,0 -0.123238,0.345067 0.07394,0.419009 0.197179,0.07394 0.394361,0.221829 0.542246,0 0.147886,-0.221828 0.81337,-1.084493 0.81337,-1.084493 l 0.985901,-0.517599 0.517601,-0.443656 c 0,0 0.887312,0 0.985904,0.02465 0.09859,0.02465 0.739426,0.19718 0.739426,0.19718 0,0 0.566894,0.764075 0.71478,0.739427 0.147886,-0.02465 0.468305,-0.172532 0.616188,-0.369713 0.147886,-0.197181 0.320419,-0.591542 0.320419,-0.591542 l 1.947159,0.172533 0.591543,0.492951 c 0,0 0.714778,0.147886 0.81337,0.147886 0.09859,0 0.566895,0.09859 0.714778,0.123238 0.147885,0.02465 0.616193,0.221828 0.616193,0.221828 l 0.4683,-0.147886 0.714785,0.295771 1.183078,0.197181 0.39436,0.197181 0.394361,-1.059846 c 0,0 0.739431,-0.788722 0.887317,-0.788722 0.147883,0 0.591537,-0.147886 0.591537,-0.147886 l 0.443663,0.517599 0.517593,0.197181 c 0,0 0.616193,0.91196 0.788722,0.887312 0.172539,-0.02465 1.503513,0.07394 1.602093,0.02465 0.0986,-0.0493 1.74998,-0.221828 1.74998,-0.221828 l 0.5176,0.02465 0.0493,22.5771831 -90.70308363,0.09859 z"
     id="path20" /></svg>
