<?xml version="1.0" encoding="UTF-8" standalone="no"?>
<!-- Created with Inkscape (http://www.inkscape.org/) -->

<svg
   width="110.01532mm"
   height="33.450024mm"
   viewBox="0 0 110.01532 33.450024"
   version="1.1"
   id="svg1"
   xml:space="preserve"
   xmlns="http://www.w3.org/2000/svg"
   xmlns:svg="http://www.w3.org/2000/svg"><defs
     id="defs1" /><path
     id="path345"
     style="display:inline;fill:#000000"
     d="m 17.700224,-1.1116154e-6 c -0.80036,0 -1.455208,0.1190700016154 -1.455208,0.2645900016154 0,0.14552 0.238126,0.50271 0.529166,0.79375001 0.49297,0.49298 0.529167,0.88194 0.529167,5.68854 0,4.8374001 -0.03328,5.1926501 -0.538469,5.6978401 -0.29636,0.29635 -0.468072,0.65354 -0.381372,0.79375 0.08666,0.14022 0.917173,0.25528 1.845883,0.25528 0.92871,0 1.759698,-0.11506 1.846398,-0.25528 0.08665,-0.14021 -0.08502,-0.4974 -0.381372,-0.79375 -0.46922,-0.46921 -0.538985,-0.87568 -0.538985,-3.1486401 0,-2.2567 0.07591,-2.70679 0.559656,-3.32177 0.45376,-0.57689 0.740043,-0.69606 1.515153,-0.63096 0.70899,0.0596 1.04186,0.2514 1.28881,0.74207 0.1985,0.3944 0.334931,1.703 0.336931,3.24114 0.0034,2.2453901 -0.06586,2.6491701 -0.534852,3.1181601 -0.29636,0.29635 -0.468072,0.65354 -0.381372,0.79375 0.08666,0.14022 0.917173,0.25528 1.845883,0.25528 0.92871,0 1.759698,-0.11506 1.846398,-0.25528 0.08665,-0.14021 -0.08502,-0.4974 -0.381372,-0.79375 -0.46722,-0.46716 -0.538985,-0.87608 -0.538985,-3.0773301 0,-1.89376 -0.111633,-2.72871 -0.440283,-3.28507 -0.24233,-0.41024 -0.724136,-0.87509 -1.070736,-1.03301 -0.34659,-0.15793 -1.134144,-0.28681 -1.749764,-0.28681 -0.61562,0 -1.383969,0.18533 -1.707389,0.41186 -0.58804,0.41188 -0.588078,0.41188 -0.588078,-2.38125 0,-2.793120011616 2e-6,-2.7931100116154 -1.455208,-2.7931100116154 z M 3.0509896,0.00599889 c -1.521714,-0.005000001 -2.68580901,0.026 -2.83496901,0.0832 -0.28334,0.10873 -0.243052,0.28931 0.187068,0.83612 0.51113,0.64982001 0.548804,1.03934001 0.548804,5.65392001 0,4.6070701 -0.0383,5.0045801 -0.54622,5.6503001 -0.30046,0.38202 -0.472172,0.81477 -0.381372,0.9617 0.10061,0.16278 1.91640901,0.26717 4.64777901,0.26717 4.48231,0 4.481896,-10e-6 4.481896,-1.19063 0,-0.65485 -0.0893,-1.19062 -0.198437,-1.19062 -0.10914,0 -0.530514,0.41672 -0.936894,0.92604 -0.73889,0.92604 -0.739399,0.92604 -2.977079,0.92604 -2.23767,0 -2.23759,0 -2.23759,-3.0427101 0,-3.04271 9e-6,-3.04271 1.455209,-3.04271 1.10243,0 1.583485,0.12828 1.984375,0.52917 0.29104,0.29104 0.64823,0.52917 0.79375,0.52917 0.14552,0 0.264583,-0.53579 0.264583,-1.19063 0,-0.8413 -0.108013,-1.19062 -0.368453,-1.19062 -0.20271,0 -0.437098,0.17859 -0.520898,0.39687 -0.11386,0.29672 -0.588496,0.39688 -1.880506,0.39688 -1.72809,0 -1.72806,-1.5e-4 -1.72806,-2.92127 0,-2.92117001 3.79e-4,-2.92117001 2.178679,-2.84427001 2.13137,0.0752 2.189809,0.0955 2.711979,0.92604001 0.29352,0.46687 0.652364,0.81393 0.797884,0.77153 0.14552,-0.0424 0.264583,-0.54368 0.264583,-1.11363 0,-1.03632001 2.58e-4,-1.03619001 -4.089672,-1.10949001 -0.562365,-0.0101 -1.109201,-0.0159 -1.616439,-0.0176 z M 11.98016,1.6503389 c -0.12933,0 -0.31131,0.40461 -0.40411,0.89917 -0.09278,0.49456 -0.412254,1.20894 -0.710034,1.5875 -0.29778,0.37857 -0.763706,0.68833 -1.0355954,0.68833 -0.2719,0 -0.567941,0.11906 -0.657841,0.26458 -0.08994,0.14552 0.06865,0.26459 0.35295,0.26459 0.4782994,0 0.5243314,0.23319 0.6113314,3.12074 0.07272,2.4140601 0.198856,3.2810801 0.558106,3.8292201 0.25542,0.38971 0.850736,0.82017 1.322916,0.95653 0.47219,0.13636 1.01128,0.25872 1.19786,0.27182 0.18657,0.0131 0.747999,-0.14683 1.247469,-0.35553 0.59028,-0.24663 0.967837,-0.61693 1.078487,-1.05782 0.0936,-0.37306 0.09845,-0.86511 0.01085,-1.09347 -0.10398,-0.27092 -0.412984,-0.38595 -0.888834,-0.33125 -0.60356,0.0694 -0.735896,0.22039 -0.770496,0.87747 -0.023,0.43656 -0.05275,0.94257 -0.06615,1.12447 -0.01337,0.1819 -0.238804,0.33073 -0.500744,0.33073 -0.26193,0 -0.61912,-0.14267 -0.79375,-0.31729 -0.21511,-0.21512 -0.317294,-1.45227 -0.317294,-3.8364601 0,-3.51896 -6e-6,-3.51916 1.058334,-3.51916 0.58208,0 1.058333,-0.11907 1.058333,-0.26459 0,-0.14552 -0.476253,-0.26458 -1.058333,-0.26458 -1.05834,0 -1.058334,0 -1.058334,-1.5875 0,-0.87312 -0.105807,-1.5875 -0.235127,-1.5875 z m 25.160738,3.04891 c -0.71902,0 -1.379611,0.1165 -1.467611,0.2589 -0.08801,0.14241 0.09531,0.60392 0.40721,1.02578 0.50993,0.68969 0.558123,1.03925 0.475423,3.46697 -0.07479,2.1961801 -0.178374,2.7634701 -0.555004,3.0385701 -0.25466,0.18601 -0.463021,0.4739 -0.463021,0.63976 0,0.19888 0.675625,0.30127 1.984375,0.30127 1.0914,0 1.984375,-0.10027 1.984375,-0.22324 0,-0.12297 -0.238117,-0.43941 -0.529167,-0.7028 -0.46446,-0.42036 -0.529167,-0.81458 -0.529167,-3.2277101 0,-2.56606 0.04288,-2.79258 0.649056,-3.39876 0.35719,-0.35719 0.934233,-0.64957 1.282093,-0.64957 0.34786,0 0.796041,0.19889 1.12913,0.44286 0.420088,0.30769 0.465483,-0.20193 0.529683,4.08864 0.0395,2.6408101 0.367817,4.9876301 0.441317,5.3195701 0.07355,0.33194 0.260124,0.68761 0.729154,0.97359 0.469042,0.28598 1.445182,0.36262 1.970422,0.39222 0.12281,0.007 1.0152,-0.025 1.40716,0.15193 0.63552,0.28699 0.52916,0.88161 0.52916,5.705601 0,3.06251 -0.18213,5.16254 -0.34416,5.4653 -0.17559,0.32809 -0.55372,0.51211 -1.05317,0.51211 -0.6355,0 -0.87047,-0.18283 -1.27589,-0.99219 -0.27335,-0.5457 -0.5756,-1.31961 -0.6718,-1.71979 -0.0962,-0.40018 -0.351379,-0.7276 -0.566889,-0.7276 -0.30783,0 -0.391708,0.38727 -0.391708,1.80764 0,0.99439 0.0514,1.85763 0.114205,1.91823 0.06281,0.0606 0.951652,0.14508 1.975592,0.18758 1.29399,0.0537 2.10405,-0.0478 2.65617,-0.33331 0.43689,-0.22592 0.91676,-0.63987 1.0666,-0.91984 0.15793,-0.2951 0.27286,-2.51286 0.27286,-5.27668 0,-3.05438 0.11023,-5.009251 0.30695,-5.441011 0.16888,-0.37065 0.44543,-0.58491 0.52917,-0.67386 0.0973,-0.10335 0.22221,-0.1786 0.22221,-0.39688 0,-0.31748 -0.39688,-0.39687 -1.98438,-0.39687 -1.29732,0.0374 -2.56771,0.26717 -3.82147,-0.19947 -0.31212,-0.13091 -0.19896,-1.84386 -0.19896,-4.62091 0,-2.6194701 -0.0627,-3.6854701 -0.20464,-4.0586701 -0.141897,-0.37321 -0.647906,-0.91659 -1.124476,-1.20716 -0.47657,-0.29056 -1.261053,-0.52863 -1.743563,-0.52917 -0.48251,-5.5e-4 -1.137348,0.13603 -1.455208,0.30334 -0.31785,0.16731 -0.665136,0.43521 -0.772046,0.59532 -0.11174,0.16737 -0.196437,0.0379 -0.198437,-0.30438 -0.0036,-0.53651 -0.133418,-0.59531 -1.311548,-0.59531 z m -6.363436,0.0165 c -0.675605,0 -1.464425,0.12623 -1.752865,0.2806 -0.288441,0.15437 -0.634472,0.56977 -0.768945,0.92346 -0.13447,0.35369 -0.179149,0.81387 -0.09922,1.02216 0.07993,0.20829 0.32348,0.4467 0.541052,0.5302 0.217572,0.0835 0.629384,0.0269 0.91519,-0.12609 0.397344,-0.21265 0.501851,-0.506 0.443901,-1.24644 -0.05653,-0.72224 0.03363,-0.9911 0.355017,-1.0573 0.236998,-0.0488 0.623951,0.1046 0.859896,0.34055 0.235944,0.23594 0.428914,0.71984 0.428914,1.07539 0,0.43899 -0.262594,0.80601 -0.818555,1.14411 -0.45028,0.27383 -1.342475,0.64457 -1.982308,0.82372 -0.639833,0.17914 -1.464402,0.62674 -1.832446,0.99478 -0.368044,0.36804 -0.74167,0.9583801 -0.83044,1.3120601 -0.107069,0.4266 0.01478,0.8803 0.361735,1.34772 0.287644,0.38751 0.809328,0.8584 1.159102,1.04645 0.374458,0.20131 1.170675,0.29716 1.936833,0.23306 0.804222,-0.0673 1.423315,-0.27575 1.621089,-0.54622 0.291297,-0.3984 0.332481,-0.38967 0.459921,0.0977 0.117415,0.44903 0.357414,0.53537 1.487764,0.53537 1.02155,0 1.347722,-0.096 1.347722,-0.39688 0,-0.21828 -0.100049,-0.39687 -0.222209,-0.39687 -0.12216,0 -0.360287,-0.30373 -0.529167,-0.67438 -0.16888,-0.37065 -0.306958,-1.80836 -0.306958,-3.1951501 0,-2.43409 -0.02648,-2.54829 -0.773079,-3.29489 -0.63269,-0.63269 -0.997049,-0.77308 -2.001945,-0.77308 z m 0.648539,3.40031 c 0.274531,0.0265 0.274402,0.46454 0.274402,1.63297 0,1.6321101 -0.0826,1.9522601 -0.649573,2.5192301 -0.357187,0.35719 -0.933713,0.64957 -1.281575,0.64957 -0.347863,0 -0.829384,-0.21809 -1.070219,-0.48421 -0.240835,-0.26612 -0.438216,-0.90033 -0.438216,-1.40921 0,-0.62151 0.195425,-1.1038301 0.595312,-1.4702001 0.327422,-0.29999 1.101328,-0.79958 1.719792,-1.11001 0.421679,-0.21165 0.685358,-0.34405 0.850077,-0.32814 z m 57.343792,1.9838501 c -1.01006,0 -1.91114,0.12025 -2.00194,0.26717 -0.0908,0.14693 0.0809,0.57968 0.38137,0.9617 0.50826,0.64612 0.54674,1.04283 0.54674,5.68596 0,2.009921 -0.009,3.193441 -0.0568,3.961001 -0.0265,-0.29991 -0.11557,-0.39602 -0.40152,-0.63562 -0.29868,-0.25023 -1.87332,-0.30438 -2.65927,-0.30438 -0.79376,0 -1.84484,0.19779 -2.3642,0.44545 -0.71393,0.34045 -0.93369,0.60634 -0.93069,1.12448 0.002,0.37323 0.1032,0.83559 0.22479,1.02733 0.12158,0.19175 1.10171,0.97192 2.17764,1.73374 1.21224,0.85833 2.05319,1.66217 2.21176,2.11305 0.1715,0.48757 0.16328,0.87577 -0.0253,1.17668 -0.18303,0.29195 -0.70645,0.47664 -1.49603,0.52864 -1.03153,0.068 -1.27592,-0.0134 -1.62264,-0.5426 -0.22452,-0.34266 -0.48464,-1.00383 -0.57774,-1.46916 -0.0931,-0.46534 -0.3327,-0.84594 -0.53279,-0.84594 -0.2639,0 -0.3638,0.39336 -0.3638,1.43299 0,1.32264 0.0561,1.45335 0.72761,1.6986 0.40018,0.14616 1.21873,0.2753 1.81901,0.2868 0.60025,0.0114 1.46153,-0.0532 1.91409,-0.14366 0.45269,-0.0905 1.12241,-0.44226 1.48828,-0.78134 0.39165,-0.36297 0.66508,-0.90762 0.66508,-1.32499 0,-0.48669 -0.35249,-1.05075 -1.12448,-1.79885 -0.61847,-0.59931 -1.69003,-1.47413 -2.38125,-1.94407 -0.81118,-0.5515 -1.25677,-1.04648 -1.25677,-1.39578 0,-0.34578 0.29783,-0.49207 0.76274,-0.6718 0.43972,-0.17 0.88782,-0.0989 1.29036,-0.0899 0.68678,0.0162 1.70315,0.22321 1.85157,0.44235 0.1449,0.21401 0.28025,0.75405 0.11472,1.36115 -0.12452,0.4567 -0.2453,0.51408 -0.22427,0.97566 0.0987,0.15969 1.68033,0.20408 4.29431,0.15968 4.27917,-0.0726 4.27899,-0.0729 4.18889,-1.1312 -0.0496,-0.58208 -0.15211,-1.11783 -0.22841,-1.19063 -0.0763,-0.0728 -0.27389,0.0953 -0.43873,0.37362 -0.16483,0.27827 -0.50757,0.72476 -0.76223,0.99219 -0.36964,0.38814 -0.86661,0.48628 -2.46238,0.48628 -1.99893,0 -1.99893,2.3e-4 -1.91823,-5.661161 0.0706,-4.94909 0.13938,-5.72604 0.54415,-6.17275 0.25466,-0.28105 0.46302,-0.65018 0.46302,-0.82062 0,-0.20704 -0.60964,-0.31006 -1.83658,-0.31006 z m 18.335317,4.52118 c -0.64882,-0.013 -1.42108,0.1051 -1.71618,0.26303 -0.2951,0.15793 -0.89823,0.69887 -1.33997,1.20199 -0.45819,0.52184 -0.87911,1.36578 -0.9803,1.964741 -0.0976,0.57747 -0.0501,1.52427 0.10594,2.10375 0.15604,0.57947 0.54118,1.38084 0.85576,1.78077 0.31459,0.39993 0.93912,0.88665 1.38803,1.0821 0.4489,0.19546 1.19586,0.35987 1.65933,0.36587 0.46347,0.006 1.14173,-0.10333 1.5074,-0.24236 0.36566,-0.13902 0.86061,-0.55163 1.10019,-0.91726 0.23961,-0.36564 0.38056,-0.8175 0.31316,-1.00407 -0.074,-0.20509 -0.25409,-0.0586 -0.45579,0.37052 -0.18348,0.39034 -0.67578,0.85122 -1.09347,1.02423 -0.59314,0.24565 -0.93427,0.24196 -1.55959,-0.0171 -0.44034,-0.18239 -1.03787,-0.66441 -1.32757,-1.07125 -0.2897,-0.40685 -0.6242,-1.26054 -0.74311,-1.89704 -0.2162,-1.15727 -0.21593,-1.15761 1.28519,-1.04903 1.04444,0.0756 1.75325,-0.0218 2.32958,-0.31988 0.45558,-0.23559 0.96072,-0.676181 1.12293,-0.979271 0.16224,-0.30309 0.22331,-0.83601 0.13591,-1.18442 -0.0875,-0.34841 -0.43991,-0.81776 -0.78342,-1.04283 -0.3435,-0.22507 -1.15521,-0.41953 -1.80402,-0.43253 z m -7.510657,0.0222 c -0.64882,-0.013 -1.42107,0.10562 -1.71617,0.26355 -0.2951,0.15793 -0.89823,0.69835 -1.33997,1.20147 -0.45819,0.52184 -0.87911,1.36578 -0.9803,1.964741 -0.0976,0.57747 -0.0501,1.52427 0.10593,2.10375 0.15604,0.57947 0.54119,1.38084 0.85577,1.78077 0.31459,0.39993 0.93963,0.88717 1.38854,1.08262 0.4489,0.19546 1.19535,0.35935 1.65882,0.36535 0.463467,0.006 1.141727,-0.10333 1.507397,-0.24236 0.36566,-0.13902 0.86061,-0.55163 1.10019,-0.91726 0.23961,-0.36564 0.38056,-0.8175 0.31316,-1.00407 -0.074,-0.20509 -0.25409,-0.0586 -0.45579,0.37052 -0.18348,0.39034 -0.67527,0.85122 -1.09296,1.02423 -0.59314,0.24565 -0.93479,0.24196 -1.560107,-0.0171 -0.44034,-0.18239 -1.03786,-0.66441 -1.32756,-1.07125 -0.2897,-0.40685 -0.6242,-1.26054 -0.74311,-1.89704 -0.2162,-1.15727 -0.21593,-1.1571 1.28519,-1.04852 1.04444,0.0756 1.753247,-0.0218 2.329577,-0.31987 0.45558,-0.23559 0.96071,-0.676701 1.12292,-0.979791 0.16224,-0.30309 0.22331,-0.83601 0.13591,-1.18442 -0.0875,-0.34841 -0.4399,-0.81725 -0.78341,-1.04232 -0.3435,-0.22507 -1.15522,-0.42004 -1.804027,-0.43304 z m 7.328237,0.2837 c 0.26629,0 0.61749,0.24921 0.78031,0.55345 0.22011,0.41134 0.21577,0.74573 -0.016,1.30535 -0.18803,0.45393 -0.63231,0.86461 -1.11983,1.034561 -0.44453,0.15497 -0.96182,0.28164 -1.1498,0.28164 h -5.1e-4 c -0.18798,0 -0.41692,-0.12172 -0.50902,-0.27079 -0.0918,-0.149071 -0.09,-0.623991 0.005,-1.055231 0.0947,-0.43124 0.47678,-1.02389 0.84904,-1.31671 0.37225,-0.29281 0.89487,-0.53227 1.16117,-0.53227 z m -7.510647,0.0222 c 0.26629,0 0.617487,0.24921 0.780307,0.55345 0.22011,0.41134 0.21577,0.74625 -0.016,1.30587 -0.188027,0.45393 -0.632307,0.86409 -1.119827,1.034041 -0.44453,0.15497 -0.96182,0.28164 -1.1498,0.28164 h -5.2e-4 c -0.18798,0 -0.41691,-0.12171 -0.50901,-0.27078 -0.0918,-0.149071 -0.09,-0.624001 0.005,-1.055241 0.0947,-0.43124 0.47679,-1.02338 0.84905,-1.3162 0.37225,-0.29281 0.89487,-0.53278 1.16117,-0.53278 z m -21.67568,5.037941 c -0.64882,-0.013 -1.42108,0.10562 -1.71618,0.26355 -0.2951,0.15793 -0.89823,0.69887 -1.33997,1.20199 -0.45819,0.52184 -0.87911,1.36578 -0.9803,1.96474 -0.0976,0.57747 -0.0496,1.52426 0.10645,2.10374 0.15604,0.57947 0.54067,1.38084 0.85525,1.78077 0.31459,0.39993 0.93963,0.88666 1.38854,1.08211 0.4489,0.19546 1.19535,0.35987 1.65882,0.36587 0.46347,0.006 1.14173,-0.10333 1.5074,-0.24236 0.36566,-0.13902 0.86113,-0.55215 1.10071,-0.91778 0.23961,-0.36564 0.38004,-0.81698 0.31264,-1.00355 -0.074,-0.20509 -0.25409,-0.0586 -0.45579,0.37052 -0.18348,0.39034 -0.67526,0.85121 -1.09295,1.02422 -0.59314,0.24565 -0.93479,0.24197 -1.56011,-0.017 -0.44034,-0.18239 -1.03787,-0.66493 -1.32757,-1.07177 -0.2897,-0.40685 -0.62368,-1.26002 -0.74259,-1.89652 -0.2162,-1.15727 -0.21645,-1.15762 1.28467,-1.04904 1.04444,0.0756 1.75325,-0.0218 2.32958,-0.31987 0.45558,-0.23559 0.96123,-0.67618 1.12344,-0.97927 0.16224,-0.30309 0.22331,-0.83602 0.13591,-1.18443 -0.0874,-0.34841 -0.44042,-0.81776 -0.78393,-1.04283 -0.3435,-0.22507 -1.15521,-0.42004 -1.80402,-0.43304 z m -8.56537,0.0403 c -0.50872,0 -1.20121,0.23845 -1.59577,0.54881 -0.38342,0.3016 -0.69712,0.42953 -0.69712,0.28473 0,-0.1448 -0.38695,-0.38233 -0.85989,-0.52813 -0.47295,-0.1458 -1.95838,-0.2683 -3.30057,-0.2713 -1.34219,-0.003 -2.508276,0.10395 -2.591576,0.23874 -0.0833,0.13478 0.10358,0.59049 0.41548,1.01235 0.509926,0.68969 0.558116,1.03925 0.475416,3.46697 -0.0748,2.19618 -0.178366,2.76296 -0.554996,3.03806 -0.25466,0.18601 -0.46302,0.47389 -0.46302,0.63975 0,0.19888 0.67563,0.30127 1.984366,0.30127 1.09141,0 1.98438,-0.10027 1.98438,-0.22324 0,-0.12297 -0.23813,-0.43941 -0.52917,-0.7028 -0.47227,-0.42739 -0.52917,-0.81473 -0.52917,-3.6034 0,-2.81849 0.05,-3.1517 0.5116,-3.39875 0.28147,-0.15064 0.69819,-0.27389 0.92604,-0.27389 0.22785,0 0.65257,0.23813 0.94361,0.52917 0.46507,0.46508 0.52917,0.88194 0.52917,3.44216 0,2.56007 -0.0626,2.96685 -0.51573,3.35484 -0.28356,0.24282 -0.45527,0.53931 -0.38137,0.65887 0.0739,0.11959 0.95396,0.21704 1.95543,0.21704 1.00147,0 1.88102,-0.0975 1.95492,-0.21704 0.0739,-0.11956 -0.0785,-0.40021 -0.33899,-0.62322 -0.37619,-0.32211 -0.50564,-0.97086 -0.62994,-3.15588 -0.0861,-1.51282 -0.22909,-2.93747 -0.31729,-3.16621 -0.10803,-0.28011 0.0632,-0.51766 0.524,-0.7276 0.37628,-0.17145 0.85724,-0.31213 1.06867,-0.31213 0.21143,0 0.62259,0.23813 0.91363,0.52917 0.48938,0.48938 0.52879,0.88225 0.52917,5.22552 3.5e-4,3.942489 0.0747,4.844469 0.46302,5.618779 0.25444,0.5073 0.76068,1.077673 1.12448,1.267623 0.37379,0.19521 1.15476,0.296876 1.79627,0.233576 0.62437,-0.0616 1.37437,-0.328286 1.66657,-0.592729 0.35898,-0.32491 0.50557,-0.74224 0.45217,-1.28778 -0.0688,-0.70302 -0.18105,-0.8077 -0.8723,-0.8077 -0.74703,0 -0.79497,0.0623 -0.80977,1.05833 -0.014,0.94352 -0.0918,1.067733 -0.7183,1.141533 -0.55322,0.0652 -0.73131,-0.0473 -0.83664,-0.529163 -0.0736,-0.3366 -0.16856,-2.81502 -0.21136,-5.507159 -0.0545,-3.43043 -0.18182,-5.07942 -0.42581,-5.51233 -0.19148,-0.33974 -0.75144,-0.78621 -1.24437,-0.99218 -0.49294,-0.20596 -1.30087,-0.37466 -1.79524,-0.37466 z m -13.962456,0.10749 c -0.675601,0 -1.464421,0.12623 -1.752861,0.2806 -0.28844,0.15437 -0.63448,0.56977 -0.76895,0.92346 -0.1345,0.35369 -0.1786,0.81387 -0.0987,1.02216 0.0799,0.20829 0.32297,0.4467 0.54054,0.5302 0.21757,0.0835 0.62939,0.0269 0.91519,-0.12609 0.39736,-0.21265 0.5019,-0.50599 0.4439,-1.24643 -0.0565,-0.72224 0.0336,-0.9911 0.355011,-1.0573 0.237,-0.0488 0.62395,0.10459 0.8599,0.34054 0.23594,0.23594 0.42943,0.71984 0.42943,1.07539 0,0.43899 -0.26311,0.80602 -0.81907,1.14412 -0.45028,0.27383 -1.341951,0.64457 -1.981791,0.82372 -0.63983,0.17914 -1.46441,0.62673 -1.83245,0.99477 -0.36804,0.36804 -0.74216,0.95838 -0.83096,1.31206 -0.10707,0.4266 0.0148,0.88031 0.36174,1.34773 0.28764,0.38751 0.80933,0.85839 1.1591,1.04644 0.37446,0.20131 1.17119,0.29716 1.93735,0.23306 0.804221,-0.0673 1.423311,-0.27575 1.621091,-0.54622 0.29129,-0.3984 0.33248,-0.38967 0.45992,0.0977 0.11741,0.44903 0.35742,0.53537 1.48777,0.53537 1.02155,0 1.34772,-0.096 1.34772,-0.39687 0,-0.21828 -0.10005,-0.39688 -0.22221,-0.39688 -0.12216,0 -0.36029,-0.30321 -0.52917,-0.67386 -0.16888,-0.37065 -0.30696,-1.80888 -0.30696,-3.19567 0,-2.43409 -0.027,-2.54829 -0.77359,-3.29489 -0.63269,-0.63269 -0.99705,-0.77308 -2.00195,-0.77308 z m 22.345406,0.15865 c 0.26629,0 0.61749,0.24921 0.78031,0.55345 0.22011,0.41134 0.21629,0.74573 -0.0155,1.30535 -0.18803,0.45393 -0.63283,0.86461 -1.12035,1.03456 -0.44453,0.15497 -0.96182,0.28164 -1.1498,0.28164 h -5.1e-4 c -0.18798,0 -0.41692,-0.12172 -0.50902,-0.27079 -0.0918,-0.14907 -0.0895,-0.62399 0.005,-1.05523 0.0947,-0.43124 0.47679,-1.0239 0.84905,-1.31672 0.37225,-0.29281 0.89435,-0.53226 1.16065,-0.53226 z m -21.696866,3.24166 c 0.27453,0.0265 0.27492,0.46506 0.27492,1.63349 0,1.63211 -0.0826,1.95174 -0.64957,2.51871 -0.35719,0.35719 -0.934231,0.64957 -1.282091,0.64957 -0.34786,0 -0.82938,-0.21808 -1.07022,-0.4842 -0.24083,-0.26612 -0.4377,-0.89982 -0.4377,-1.4087 0,-0.62151 0.19542,-1.10435 0.59531,-1.47072 0.32742,-0.29999 1.10133,-0.79958 1.719791,-1.11001 0.42168,-0.21165 0.68484,-0.34405 0.84956,-0.32814 z" /></svg>
