<svg xmlns="http://www.w3.org/2000/svg" xmlns:xlink="http://www.w3.org/1999/xlink" width="2380" zoomAndPan="magnify" viewBox="0 0 1784.88 1784.99993" height="2380" preserveAspectRatio="xMidYMid meet" version="1.0"><path d="M 340.851562 334.277344 C 344.847656 269.464844 361.660156 241.304688 409.933594 218.664062 C 461.871094 194.304688 543.773438 205.625 640.128906 250.515625 C 681.632812 269.855469 685.851562 270.242188 758.597656 261.667969 C 855.285156 250.265625 979.773438 250.292969 1069.027344 261.78125 C 1136.527344 270.464844 1140.941406 270.019531 1182.554688 250.628906 C 1319.335938 186.898438 1427.34375 191.089844 1466.464844 261.585938 C 1485.996094 296.765625 1489.601562 388.101562 1474.480469 463.425781 C 1466.101562 505.179688 1466.992188 510.398438 1487.1875 537.808594 C 1629.433594 730.601562 1526.945312 1043.113281 1283.210938 1159.75 C 1264.570312 1168.683594 1248.835938 1174.207031 1236.046875 1178.699219 C 1196.707031 1192.515625 1184.777344 1196.707031 1199.230469 1260.296875 C 1206.195312 1290.871094 1214.574219 1366.917969 1217.875 1429.285156 C 1223.839844 1542.011719 1223.757812 1542.816406 1202.253906 1565.816406 C 1172.984375 1597.113281 1130.8125 1597.640625 1102.265625 1567.066406 C 1083.621094 1547.144531 1081.816406 1537.710938 1081.816406 1460.832031 C 1081.816406 1347.191406 1068.277344 1271.671875 1036.289062 1206.945312 C 998.25 1129.925781 1026.441406 1101.210938 1113.445312 1083.980469 C 1234.382812 1060.039062 1328.851562 991.398438 1381.484375 889.160156 C 1431.535156 791.972656 1439.078125 657.691406 1348.578125 576.011719 C 1322.832031 547.878906 1321.054688 522.410156 1339.421875 445.558594 C 1346.277344 416.84375 1352.046875 379.804688 1352.210938 363.214844 C 1352.460938 337.050781 1349.882812 333.082031 1332.402344 333.082031 C 1321.332031 333.082031 1279.078125 347.871094 1238.515625 365.960938 L 1173.761719 394.84375 C 1167.878906 397.476562 1161.277344 398.476562 1154.785156 397.78125 C 990.121094 380.414062 833.671875 380.136719 668.207031 397.867188 C 661.6875 398.558594 655.054688 397.5625 649.171875 394.925781 L 584.445312 366.042969 C 543.882812 347.925781 501.628906 333.109375 490.558594 333.109375 C 465.007812 333.109375 464.617188 350.480469 487.921875 453.605469 C 502.15625 516.582031 511.726562 530.621094 470.582031 580.976562 C 408.90625 656.46875 393.507812 750.21875 426.582031 848.710938 C 468.253906 972.839844 570.324219 1056.679688 713.84375 1084.648438 C 800.351562 1101.515625 822.964844 1123.515625 789.917969 1214.769531 C 763.921875 1286.570312 747.472656 1305.074219 709.683594 1305.074219 C 658.828125 1305.074219 626.976562 1264.570312 644.511719 1222.175781 C 652.226562 1203.503906 649.921875 1201.507812 602.3125 1185.527344 C 456.90625 1136.75 345.707031 1027.464844 294.851562 883.363281 C 255.566406 771.996094 272.851562 627.007812 335.886719 539.390625 C 357.359375 509.5625 357.691406 507.011719 347.675781 449.914062 C 342.015625 417.59375 338.9375 365.542969 340.851562 334.277344 Z M 340.851562 334.277344 " fill-opacity="1" fill-rule="nonzero"/><path d="M 290.078125 1149.042969 C 269.132812 1120.132812 226.65625 1112.308594 195.25 1131.589844 C 163.816406 1150.875 155.324219 1189.910156 176.273438 1218.820312 C 191.753906 1240.152344 210.257812 1257.6875 225.960938 1272.144531 C 228.847656 1274.808594 231.675781 1277.386719 234.425781 1279.882812 C 247.574219 1291.925781 259.199219 1302.523438 270.878906 1315.148438 C 296.710938 1343.03125 322.457031 1380.566406 337.105469 1447.902344 C 343.625 1477.894531 367.070312 1494.042969 380.054688 1501.117188 C 394.148438 1508.773438 409.519531 1513.269531 422.195312 1516.210938 C 448.109375 1522.230469 479.542969 1525.335938 509.371094 1527.167969 C 542.136719 1529.167969 577.621094 1529.804688 609.359375 1530 C 609.386719 1564.707031 639.988281 1592.867188 677.75 1592.867188 C 715.507812 1592.867188 746.140625 1564.707031 746.140625 1529.96875 L 746.140625 1467.074219 C 746.140625 1432.339844 715.507812 1404.179688 677.75 1404.179688 C 671.3125 1404.179688 664.320312 1404.207031 656.941406 1404.234375 C 616.796875 1404.34375 564.496094 1404.484375 518.414062 1401.679688 C 496.191406 1400.320312 477.933594 1398.40625 464.535156 1396.078125 C 443.921875 1321.609375 410.601562 1272.03125 375.03125 1233.660156 C 359.300781 1216.683594 343.042969 1201.839844 329.808594 1189.769531 C 327.339844 1187.523438 324.953125 1185.359375 322.707031 1183.277344 C 307.417969 1169.128906 297.429688 1159.140625 290.078125 1149.042969 Z M 290.078125 1149.042969 " fill-opacity="1" fill-rule="nonzero"/></svg>