<svg xmlns="http://www.w3.org/2000/svg" xmlns:xlink="http://www.w3.org/1999/xlink" width="2380" zoomAndPan="magnify" viewBox="0 0 1784.88 1784.99993" height="2380" preserveAspectRatio="xMidYMid meet" version="1.0"><defs><clipPath id="216b81127f"><path d="M 186.976562 187.039062 L 1597.632812 187.039062 L 1597.632812 1597.691406 L 186.976562 1597.691406 Z M 186.976562 187.039062 " clip-rule="nonzero"/></clipPath></defs><path  d="M 515.871094 698.695312 L 620.222656 698.695312 C 620.878906 698.695312 621.53125 698.726562 622.183594 698.792969 C 622.835938 698.855469 623.484375 698.953125 624.125 699.082031 C 624.769531 699.207031 625.402344 699.367188 626.03125 699.558594 C 626.65625 699.75 627.273438 699.96875 627.878906 700.21875 C 628.484375 700.46875 629.078125 700.75 629.65625 701.058594 C 630.234375 701.367188 630.792969 701.703125 631.339844 702.070312 C 631.882812 702.433594 632.410156 702.824219 632.917969 703.238281 C 633.421875 703.65625 633.910156 704.09375 634.371094 704.558594 C 634.835938 705.019531 635.273438 705.503906 635.691406 706.011719 C 636.105469 706.519531 636.496094 707.042969 636.859375 707.589844 C 637.226562 708.132812 637.5625 708.695312 637.871094 709.273438 C 638.179688 709.851562 638.460938 710.445312 638.710938 711.050781 C 638.960938 711.65625 639.179688 712.269531 639.371094 712.898438 C 639.5625 713.527344 639.722656 714.160156 639.847656 714.804688 C 639.976562 715.445312 640.074219 716.09375 640.136719 716.746094 C 640.199219 717.398438 640.234375 718.050781 640.234375 718.707031 L 640.234375 1292.660156 C 640.234375 1293.316406 640.199219 1293.96875 640.136719 1294.621094 C 640.074219 1295.273438 639.976562 1295.921875 639.847656 1296.566406 C 639.722656 1297.207031 639.5625 1297.84375 639.371094 1298.46875 C 639.179688 1299.097656 638.960938 1299.714844 638.710938 1300.320312 C 638.460938 1300.925781 638.179688 1301.515625 637.871094 1302.09375 C 637.5625 1302.671875 637.226562 1303.234375 636.859375 1303.777344 C 636.496094 1304.324219 636.105469 1304.847656 635.691406 1305.355469 C 635.273438 1305.863281 634.835938 1306.347656 634.371094 1306.8125 C 633.910156 1307.273438 633.421875 1307.714844 632.917969 1308.128906 C 632.410156 1308.546875 631.882812 1308.9375 631.339844 1309.300781 C 630.792969 1309.664062 630.234375 1310 629.65625 1310.308594 C 629.078125 1310.617188 628.484375 1310.898438 627.878906 1311.148438 C 627.273438 1311.398438 626.65625 1311.621094 626.03125 1311.8125 C 625.402344 1312 624.769531 1312.160156 624.125 1312.289062 C 623.484375 1312.414062 622.835938 1312.511719 622.183594 1312.574219 C 621.53125 1312.640625 620.878906 1312.671875 620.222656 1312.671875 L 515.871094 1312.671875 C 515.21875 1312.671875 514.5625 1312.640625 513.910156 1312.574219 C 513.257812 1312.511719 512.613281 1312.414062 511.96875 1312.289062 C 511.328125 1312.160156 510.691406 1312 510.0625 1311.8125 C 509.4375 1311.621094 508.820312 1311.398438 508.214844 1311.148438 C 507.609375 1310.898438 507.019531 1310.617188 506.441406 1310.308594 C 505.863281 1310 505.300781 1309.664062 504.753906 1309.300781 C 504.210938 1308.9375 503.683594 1308.546875 503.179688 1308.128906 C 502.671875 1307.714844 502.1875 1307.273438 501.722656 1306.8125 C 501.257812 1306.347656 500.820312 1305.863281 500.402344 1305.355469 C 499.988281 1304.847656 499.597656 1304.324219 499.234375 1303.777344 C 498.871094 1303.234375 498.535156 1302.671875 498.226562 1302.09375 C 497.914062 1301.515625 497.636719 1300.925781 497.386719 1300.320312 C 497.132812 1299.714844 496.914062 1299.097656 496.722656 1298.46875 C 496.53125 1297.84375 496.375 1297.207031 496.246094 1296.566406 C 496.117188 1295.921875 496.023438 1295.273438 495.957031 1294.621094 C 495.894531 1293.96875 495.863281 1293.316406 495.863281 1292.660156 L 495.863281 718.707031 C 495.863281 718.050781 495.894531 717.398438 495.957031 716.746094 C 496.023438 716.09375 496.117188 715.445312 496.246094 714.804688 C 496.375 714.160156 496.535156 713.527344 496.722656 712.898438 C 496.914062 712.269531 497.132812 711.65625 497.386719 711.050781 C 497.636719 710.445312 497.914062 709.851562 498.226562 709.273438 C 498.535156 708.695312 498.871094 708.132812 499.234375 707.589844 C 499.597656 707.042969 499.988281 706.519531 500.402344 706.011719 C 500.820312 705.503906 501.257812 705.019531 501.722656 704.558594 C 502.1875 704.09375 502.671875 703.65625 503.179688 703.238281 C 503.683594 702.824219 504.210938 702.433594 504.753906 702.070312 C 505.300781 701.703125 505.863281 701.367188 506.441406 701.058594 C 507.019531 700.75 507.609375 700.46875 508.214844 700.21875 C 508.820312 699.96875 509.4375 699.75 510.0625 699.558594 C 510.691406 699.367188 511.328125 699.207031 511.96875 699.082031 C 512.613281 698.953125 513.257812 698.855469 513.910156 698.792969 C 514.5625 698.726562 515.21875 698.695312 515.871094 698.695312 Z M 515.871094 698.695312 " fill-opacity="1" fill-rule="nonzero"/><path  d="M 652.101562 557.097656 C 651.941406 507.886719 616.640625 472.199219 568.050781 472.199219 C 519.464844 472.199219 482.8125 508.839844 482.8125 557.4375 C 482.8125 580.050781 491.070312 601.082031 506.039062 616.660156 C 521.425781 632.667969 542.609375 641.484375 565.679688 641.484375 C 591.246094 641.484375 614.070312 632.480469 629.949219 616.019531 C 644.824219 600.632812 652.679688 579.847656 652.109375 557.4375 C 652.109375 557.328125 652.101562 557.246094 652.101562 557.097656 Z M 652.101562 557.097656 " fill-opacity="1" fill-rule="nonzero"/><path  d="M 1223.671875 739.070312 C 1171.714844 692.59375 1110.820312 685.648438 1079.140625 685.648438 C 1031.8125 685.648438 986.71875 698.296875 948.707031 722.230469 C 932.09375 732.691406 917.082031 745.09375 903.683594 759.441406 L 901.058594 717.417969 C 901.019531 716.789062 900.953125 716.164062 900.855469 715.539062 C 900.753906 714.917969 900.628906 714.300781 900.472656 713.691406 C 900.3125 713.082031 900.128906 712.480469 899.914062 711.886719 C 899.703125 711.292969 899.460938 710.710938 899.191406 710.140625 C 898.925781 709.570312 898.628906 709.015625 898.308594 708.472656 C 897.988281 707.933594 897.640625 707.40625 897.269531 706.894531 C 896.902344 706.386719 896.507812 705.894531 896.089844 705.421875 C 895.671875 704.949219 895.234375 704.5 894.773438 704.070312 C 894.316406 703.636719 893.835938 703.230469 893.335938 702.84375 C 892.839844 702.457031 892.324219 702.097656 891.792969 701.757812 C 891.257812 701.421875 890.710938 701.113281 890.152344 700.824219 C 889.589844 700.539062 889.015625 700.28125 888.429688 700.050781 C 887.84375 699.820312 887.246094 699.617188 886.640625 699.441406 C 886.035156 699.265625 885.425781 699.121094 884.804688 699.003906 C 884.1875 698.886719 883.5625 698.800781 882.933594 698.742188 C 882.308594 698.683594 881.679688 698.65625 881.050781 698.65625 L 788.605469 698.65625 C 787.921875 698.65625 787.234375 698.691406 786.550781 698.761719 C 785.871094 698.832031 785.191406 698.9375 784.519531 699.078125 C 783.847656 699.21875 783.183594 699.394531 782.53125 699.601562 C 781.875 699.8125 781.234375 700.054688 780.605469 700.328125 C 779.976562 700.601562 779.363281 700.910156 778.765625 701.246094 C 778.164062 701.585938 777.585938 701.953125 777.027344 702.347656 C 776.46875 702.746094 775.929688 703.171875 775.414062 703.625 C 774.898438 704.078125 774.40625 704.554688 773.9375 705.058594 C 773.472656 705.5625 773.03125 706.089844 772.617188 706.636719 C 772.207031 707.1875 771.820312 707.753906 771.46875 708.34375 C 771.113281 708.933594 770.789062 709.535156 770.5 710.160156 C 770.207031 710.78125 769.949219 711.414062 769.71875 712.0625 C 769.492188 712.710938 769.300781 713.371094 769.140625 714.039062 C 768.984375 714.707031 768.859375 715.378906 768.769531 716.0625 C 768.679688 716.742188 768.625 717.425781 768.605469 718.113281 C 768.589844 718.796875 768.605469 719.484375 768.65625 720.167969 C 771.9375 763.972656 773.339844 809.988281 773.339844 874.015625 L 773.339844 1292.660156 C 773.339844 1293.316406 773.371094 1293.96875 773.433594 1294.621094 C 773.5 1295.273438 773.59375 1295.921875 773.722656 1296.566406 C 773.851562 1297.207031 774.007812 1297.84375 774.199219 1298.46875 C 774.390625 1299.097656 774.609375 1299.714844 774.863281 1300.320312 C 775.113281 1300.925781 775.390625 1301.515625 775.703125 1302.09375 C 776.011719 1302.671875 776.347656 1303.234375 776.710938 1303.777344 C 777.074219 1304.324219 777.464844 1304.847656 777.878906 1305.355469 C 778.296875 1305.863281 778.734375 1306.347656 779.199219 1306.8125 C 779.664062 1307.273438 780.148438 1307.714844 780.65625 1308.128906 C 781.160156 1308.546875 781.6875 1308.9375 782.230469 1309.300781 C 782.777344 1309.664062 783.339844 1310 783.917969 1310.308594 C 784.496094 1310.617188 785.085938 1310.898438 785.691406 1311.148438 C 786.296875 1311.398438 786.914062 1311.621094 787.539062 1311.8125 C 788.167969 1312 788.800781 1312.160156 789.445312 1312.289062 C 790.089844 1312.414062 790.734375 1312.511719 791.386719 1312.574219 C 792.039062 1312.640625 792.695312 1312.671875 793.347656 1312.671875 L 897.707031 1312.671875 C 898.363281 1312.671875 899.019531 1312.640625 899.667969 1312.574219 C 900.320312 1312.511719 900.96875 1312.414062 901.613281 1312.289062 C 902.253906 1312.160156 902.890625 1312 903.515625 1311.8125 C 904.144531 1311.621094 904.761719 1311.398438 905.367188 1311.148438 C 905.972656 1310.898438 906.5625 1310.617188 907.140625 1310.308594 C 907.71875 1310 908.28125 1309.664062 908.824219 1309.300781 C 909.371094 1308.9375 909.898438 1308.546875 910.402344 1308.128906 C 910.910156 1307.714844 911.394531 1307.273438 911.859375 1306.8125 C 912.320312 1306.347656 912.761719 1305.863281 913.175781 1305.355469 C 913.59375 1304.847656 913.984375 1304.324219 914.347656 1303.777344 C 914.710938 1303.234375 915.046875 1302.671875 915.355469 1302.09375 C 915.664062 1301.515625 915.945312 1300.925781 916.195312 1300.320312 C 916.445312 1299.714844 916.667969 1299.097656 916.859375 1298.46875 C 917.046875 1297.84375 917.207031 1297.207031 917.335938 1296.566406 C 917.464844 1295.921875 917.558594 1295.273438 917.625 1294.621094 C 917.6875 1293.96875 917.71875 1293.316406 917.71875 1292.660156 L 917.71875 947.578125 C 917.71875 931.355469 919.871094 916.128906 923.632812 905.792969 C 923.742188 905.472656 923.851562 905.144531 923.953125 904.792969 C 938.0625 858.765625 980.886719 812.21875 1044.75 812.21875 C 1084.285156 812.21875 1112.660156 825.738281 1131.511719 853.542969 C 1148.519531 878.675781 1157.523438 916.117188 1157.523438 961.785156 L 1157.523438 1292.660156 C 1157.523438 1293.316406 1157.558594 1293.96875 1157.621094 1294.621094 C 1157.683594 1295.273438 1157.78125 1295.921875 1157.910156 1296.566406 C 1158.039062 1297.207031 1158.195312 1297.84375 1158.386719 1298.46875 C 1158.578125 1299.097656 1158.796875 1299.714844 1159.046875 1300.320312 C 1159.300781 1300.925781 1159.578125 1301.515625 1159.886719 1302.09375 C 1160.195312 1302.671875 1160.535156 1303.234375 1160.898438 1303.777344 C 1161.261719 1304.324219 1161.652344 1304.847656 1162.066406 1305.355469 C 1162.484375 1305.863281 1162.921875 1306.347656 1163.386719 1306.8125 C 1163.847656 1307.273438 1164.335938 1307.714844 1164.839844 1308.128906 C 1165.347656 1308.546875 1165.875 1308.9375 1166.417969 1309.300781 C 1166.964844 1309.664062 1167.523438 1310 1168.101562 1310.308594 C 1168.679688 1310.617188 1169.273438 1310.898438 1169.878906 1311.148438 C 1170.484375 1311.398438 1171.101562 1311.621094 1171.726562 1311.8125 C 1172.355469 1312 1172.988281 1312.160156 1173.632812 1312.289062 C 1174.273438 1312.414062 1174.921875 1312.511719 1175.574219 1312.574219 C 1176.226562 1312.640625 1176.878906 1312.671875 1177.535156 1312.671875 L 1281.894531 1312.671875 C 1282.550781 1312.671875 1283.203125 1312.640625 1283.855469 1312.574219 C 1284.507812 1312.511719 1285.15625 1312.414062 1285.800781 1312.289062 C 1286.441406 1312.160156 1287.078125 1312 1287.703125 1311.8125 C 1288.332031 1311.621094 1288.949219 1311.398438 1289.554688 1311.148438 C 1290.160156 1310.898438 1290.75 1310.617188 1291.328125 1310.308594 C 1291.90625 1310 1292.46875 1309.664062 1293.011719 1309.300781 C 1293.558594 1308.9375 1294.082031 1308.546875 1294.589844 1308.128906 C 1295.097656 1307.714844 1295.582031 1307.273438 1296.046875 1306.8125 C 1296.507812 1306.347656 1296.949219 1305.863281 1297.363281 1305.355469 C 1297.78125 1304.847656 1298.167969 1304.324219 1298.535156 1303.777344 C 1298.898438 1303.234375 1299.234375 1302.671875 1299.542969 1302.09375 C 1299.851562 1301.515625 1300.132812 1300.925781 1300.382812 1300.320312 C 1300.632812 1299.714844 1300.855469 1299.097656 1301.042969 1298.46875 C 1301.234375 1297.84375 1301.394531 1297.207031 1301.523438 1296.566406 C 1301.648438 1295.921875 1301.746094 1295.273438 1301.808594 1294.621094 C 1301.875 1293.96875 1301.90625 1293.316406 1301.90625 1292.660156 L 1301.90625 949.949219 C 1301.90625 901.121094 1294.523438 857.847656 1279.972656 821.324219 C 1266.90625 788.476562 1247.957031 760.800781 1223.671875 739.070312 Z M 1223.671875 739.070312 " fill-opacity="1" fill-rule="nonzero"/><g clip-path="url(#216b81127f)"><path  d="M 1414.109375 187.039062 L 370.640625 187.039062 C 269.363281 187.039062 186.976562 269.433594 186.976562 370.703125 L 186.976562 1414.167969 C 186.976562 1515.4375 269.363281 1597.832031 370.640625 1597.832031 L 1414.109375 1597.832031 C 1515.375 1597.832031 1597.773438 1515.4375 1597.773438 1414.167969 L 1597.773438 370.703125 C 1597.773438 269.433594 1515.375 187.039062 1414.109375 187.039062 Z M 1468.808594 379.597656 L 1468.808594 1405.273438 C 1468.808594 1407.355469 1468.703125 1409.433594 1468.496094 1411.507812 C 1468.292969 1413.578125 1467.984375 1415.636719 1467.578125 1417.675781 C 1467.167969 1419.71875 1466.660156 1421.734375 1466.054688 1423.726562 C 1465.449219 1425.71875 1464.75 1427.675781 1463.949219 1429.601562 C 1463.152344 1431.523438 1462.261719 1433.402344 1461.28125 1435.238281 C 1460.296875 1437.074219 1459.226562 1438.859375 1458.070312 1440.589844 C 1456.914062 1442.320312 1455.675781 1443.992188 1454.351562 1445.601562 C 1453.03125 1447.210938 1451.636719 1448.75 1450.164062 1450.222656 C 1448.691406 1451.695312 1447.148438 1453.09375 1445.539062 1454.414062 C 1443.929688 1455.734375 1442.261719 1456.972656 1440.53125 1458.132812 C 1438.800781 1459.289062 1437.015625 1460.359375 1435.179688 1461.339844 C 1433.34375 1462.324219 1431.464844 1463.210938 1429.539062 1464.011719 C 1427.617188 1464.808594 1425.660156 1465.511719 1423.667969 1466.117188 C 1421.675781 1466.722656 1419.660156 1467.230469 1417.617188 1467.636719 C 1415.574219 1468.042969 1413.519531 1468.351562 1411.445312 1468.558594 C 1409.375 1468.765625 1407.296875 1468.867188 1405.214844 1468.871094 L 379.535156 1468.871094 C 377.453125 1468.867188 375.375 1468.765625 373.304688 1468.558594 C 371.234375 1468.351562 369.175781 1468.042969 367.132812 1467.636719 C 365.09375 1467.230469 363.074219 1466.722656 361.082031 1466.117188 C 359.089844 1465.511719 357.132812 1464.808594 355.210938 1464.011719 C 353.285156 1463.210938 351.40625 1462.324219 349.570312 1461.339844 C 347.734375 1460.359375 345.953125 1459.289062 344.21875 1458.132812 C 342.488281 1456.972656 340.820312 1455.734375 339.210938 1454.414062 C 337.601562 1453.09375 336.058594 1451.695312 334.585938 1450.222656 C 333.113281 1448.75 331.71875 1447.210938 330.398438 1445.601562 C 329.074219 1443.992188 327.835938 1442.320312 326.679688 1440.589844 C 325.523438 1438.859375 324.453125 1437.074219 323.46875 1435.238281 C 322.488281 1433.402344 321.597656 1431.523438 320.800781 1429.601562 C 320.003906 1427.675781 319.300781 1425.71875 318.695312 1423.726562 C 318.089844 1421.734375 317.582031 1419.71875 317.175781 1417.675781 C 316.765625 1415.636719 316.457031 1413.578125 316.253906 1411.507812 C 316.046875 1409.433594 315.941406 1407.355469 315.941406 1405.273438 L 315.941406 379.597656 C 315.941406 377.515625 316.046875 375.4375 316.253906 373.363281 C 316.457031 371.292969 316.765625 369.234375 317.175781 367.195312 C 317.582031 365.152344 318.089844 363.136719 318.695312 361.144531 C 319.300781 359.152344 320.003906 357.191406 320.800781 355.269531 C 321.597656 353.347656 322.488281 351.46875 323.46875 349.632812 C 324.453125 347.796875 325.523438 346.011719 326.679688 344.28125 C 327.835938 342.550781 329.074219 340.878906 330.398438 339.269531 C 331.71875 337.660156 333.113281 336.121094 334.585938 334.648438 C 336.058594 333.175781 337.601562 331.777344 339.210938 330.457031 C 340.820312 329.136719 342.488281 327.898438 344.222656 326.738281 C 345.953125 325.582031 347.734375 324.511719 349.570312 323.53125 C 351.40625 322.546875 353.285156 321.65625 355.210938 320.859375 C 357.132812 320.0625 359.089844 319.359375 361.082031 318.753906 C 363.074219 318.148438 365.09375 317.640625 367.132812 317.234375 C 369.175781 316.824219 371.234375 316.519531 373.304688 316.3125 C 375.375 316.105469 377.453125 316.003906 379.535156 316 L 1405.214844 316 C 1407.296875 316.003906 1409.375 316.105469 1411.445312 316.3125 C 1413.519531 316.519531 1415.574219 316.824219 1417.617188 317.234375 C 1419.660156 317.640625 1421.675781 318.148438 1423.667969 318.753906 C 1425.660156 319.359375 1427.617188 320.0625 1429.539062 320.859375 C 1431.464844 321.65625 1433.34375 322.546875 1435.179688 323.53125 C 1437.015625 324.511719 1438.800781 325.582031 1440.53125 326.738281 C 1442.261719 327.898438 1443.929688 329.136719 1445.539062 330.457031 C 1447.148438 331.777344 1448.691406 333.175781 1450.164062 334.648438 C 1451.636719 336.121094 1453.03125 337.660156 1454.351562 339.269531 C 1455.675781 340.878906 1456.914062 342.550781 1458.070312 344.28125 C 1459.226562 346.011719 1460.296875 347.796875 1461.28125 349.632812 C 1462.261719 351.46875 1463.152344 353.347656 1463.949219 355.269531 C 1464.75 357.191406 1465.449219 359.152344 1466.054688 361.144531 C 1466.660156 363.136719 1467.167969 365.152344 1467.578125 367.195312 C 1467.984375 369.234375 1468.292969 371.292969 1468.496094 373.363281 C 1468.703125 375.4375 1468.808594 377.515625 1468.808594 379.597656 Z M 1468.808594 379.597656 " fill-opacity="1" fill-rule="nonzero"/></g></svg>