<svg xmlns="http://www.w3.org/2000/svg" xmlns:xlink="http://www.w3.org/1999/xlink" width="2380" zoomAndPan="magnify" viewBox="0 0 1784.88 1784.99993" height="2380" preserveAspectRatio="xMidYMid meet" version="1.0"><defs><clipPath id="d93887a68a"><path d="M 148.070312 335.019531 L 1636.71875 335.019531 L 1636.71875 1450 L 148.070312 1450 Z M 148.070312 335.019531 " clip-rule="nonzero"/></clipPath></defs><g clip-path="url(#d93887a68a)"><path d="M 1519.886719 1449.640625 L 263.421875 1449.640625 C 253.886719 1448.402344 246.945312 1447.328125 242.59375 1446.421875 C 202.34375 1437.949219 168.941406 1406.429688 155.523438 1368.792969 C 151.503906 1357.535156 150.015625 1345.761719 148.070312 1333.8125 L 148.070312 449.046875 C 150.164062 443.367188 150.015625 436.972656 151.179688 432.132812 C 152.78125 425.519531 154.402344 418.132812 157.035156 411.996094 C 174.003906 372.300781 203.617188 347.769531 245.878906 338.40625 C 249.765625 337.542969 253.664062 337.023438 257.566406 336.851562 C 262.816406 336.636719 267.9375 335.402344 273.253906 335.402344 C 682.589844 335.214844 1096.296875 335.214844 1514.375 335.402344 C 1517.574219 335.402344 1520.742188 335.632812 1523.882812 336.09375 C 1527.007812 336.570312 1530.15625 337.015625 1533.324219 337.433594 C 1544.269531 338.875 1553.941406 341.476562 1562.339844 345.234375 C 1602.355469 363.082031 1631.886719 400.675781 1634.828125 445.441406 C 1635.300781 452.699219 1636.035156 459.765625 1635.992188 466.960938 C 1634.308594 689.128906 1635.238281 911.46875 1635.257812 1149.324219 C 1635.257812 1200.269531 1636.597656 1253.871094 1635.886719 1307.539062 C 1635.667969 1324.074219 1635.289062 1335.269531 1634.742188 1341.117188 C 1631.425781 1376.273438 1614.835938 1404.929688 1584.960938 1427.082031 C 1570.730469 1437.628906 1554.828125 1444.324219 1537.257812 1447.175781 C 1531.480469 1448.113281 1525.691406 1448.933594 1519.886719 1449.640625 Z M 869.90625 1005.214844 C 888.8125 1012.367188 911 1007.722656 925.671875 994.066406 C 1055.347656 873.320312 1184.28125 753.808594 1312.472656 635.523438 C 1386.523438 567.207031 1459.929688 499.238281 1532.699219 431.613281 C 1533.820312 430.574219 1533.859375 429.496094 1532.804688 428.371094 C 1531.148438 426.628906 1528.6875 425.757812 1525.417969 425.757812 C 1100.8125 425.613281 681.355469 425.542969 267.050781 425.542969 C 258.925781 425.542969 254.28125 427.421875 248.792969 432.671875 C 248.003906 433.433594 248.015625 434.183594 248.839844 434.917969 C 253.273438 438.808594 257.710938 442.777344 262.148438 446.824219 C 311.566406 491.980469 366.992188 543.210938 428.421875 600.523438 C 560.300781 723.558594 688.292969 842.503906 812.394531 957.359375 C 823.414062 967.558594 834.726562 978.007812 846.335938 988.710938 C 855.640625 997.292969 863.5 1002.796875 869.90625 1005.214844 Z M 1543.414062 549.601562 C 1543.414062 549.296875 1543.261719 549.03125 1542.960938 548.800781 C 1542.828125 548.691406 1542.671875 548.632812 1542.5 548.628906 C 1542.328125 548.625 1542.171875 548.675781 1542.03125 548.78125 C 1531.8125 556.664062 1523.601562 565.933594 1513.878906 574.988281 C 1408.558594 672.832031 1300.511719 773.628906 1189.734375 877.375 C 1188.683594 878.382812 1187.566406 879.277344 1186.382812 880.054688 C 1184.699219 881.195312 1184.632812 882.425781 1186.191406 883.75 C 1189.878906 886.875 1193.140625 889.769531 1195.976562 892.433594 C 1255.867188 948.550781 1320.332031 1009.300781 1389.367188 1074.675781 C 1402.71875 1087.308594 1414.445312 1098.585938 1424.542969 1108.511719 C 1435.515625 1119.292969 1447.183594 1129.492188 1458.136719 1140.25 C 1466.707031 1148.660156 1475.089844 1156.589844 1483.285156 1164.039062 C 1496.941406 1176.394531 1509.429688 1189.421875 1523.148438 1201.824219 C 1529.644531 1207.6875 1535.9375 1213.789062 1542.03125 1220.125 C 1542.277344 1220.398438 1542.578125 1220.496094 1542.9375 1220.425781 C 1543.5 1220.328125 1543.78125 1220.066406 1543.78125 1219.648438 C 1543.796875 996.667969 1543.78125 773.769531 1543.738281 550.960938 C 1543.738281 550.671875 1543.671875 550.398438 1543.542969 550.140625 C 1543.457031 549.980469 1543.414062 549.800781 1543.414062 549.601562 Z M 242.160156 1220.449219 C 251.378906 1211.246094 261.363281 1201.53125 272.105469 1191.304688 C 368.453125 1099.667969 463.601562 1008.800781 557.558594 918.707031 C 568.246094 908.453125 579.488281 897.835938 591.285156 886.859375 C 593.589844 884.730469 593.574219 882.613281 591.242188 880.507812 C 586.703125 876.390625 582.398438 872.421875 578.320312 868.605469 C 464.804688 762.304688 357.925781 662.734375 257.675781 569.886719 C 251.667969 564.328125 245.921875 558.96875 240.433594 553.8125 C 240.1875 553.582031 240.066406 553.582031 240.066406 553.8125 L 239.632812 1219.390625 C 239.632812 1221.78125 240.476562 1222.132812 242.160156 1220.449219 Z M 896.699219 1101.574219 C 851.566406 1103.628906 815.160156 1087.273438 782.148438 1056.183594 C 752.101562 1027.910156 715.019531 993.175781 670.898438 951.980469 C 669.042969 950.25 667.039062 948.574219 664.894531 946.945312 C 664.585938 946.71875 664.25 946.550781 663.882812 946.4375 C 663.519531 946.328125 663.144531 946.285156 662.765625 946.304688 C 662.382812 946.324219 662.019531 946.40625 661.667969 946.554688 C 661.316406 946.703125 661.003906 946.902344 660.722656 947.160156 C 655.171875 952.195312 649.921875 957.855469 644.542969 962.976562 C 529.472656 1072.890625 415.496094 1182.027344 302.613281 1290.386719 C 288.355469 1304.082031 275.644531 1316.03125 264.480469 1326.230469 C 258.1875 1331.992188 252.25 1337.671875 246.675781 1343.277344 C 245.179688 1344.789062 245.15625 1346.324219 246.613281 1347.878906 C 255.535156 1357.382812 263.398438 1356.734375 277.8125 1356.734375 C 690.429688 1356.734375 1103.050781 1356.734375 1515.671875 1356.734375 C 1525.847656 1356.734375 1531.488281 1355.722656 1536.910156 1347.488281 C 1538.164062 1345.574219 1537.960938 1343.835938 1536.304688 1342.28125 C 1403.347656 1216.496094 1270.429688 1090.570312 1137.554688 964.511719 C 1130.152344 957.480469 1123.878906 951.144531 1118.738281 945.5 C 1118.410156 945.140625 1118.03125 944.863281 1117.59375 944.65625 C 1117.152344 944.453125 1116.695312 944.339844 1116.210938 944.320312 C 1115.730469 944.300781 1115.261719 944.375 1114.808594 944.539062 C 1114.355469 944.707031 1113.949219 944.953125 1113.59375 945.28125 C 1076.132812 979.914062 1038.949219 1015.046875 1001.808594 1049.960938 C 987.5625 1063.355469 976.539062 1072.574219 968.730469 1077.617188 C 945.742188 1092.453125 921.730469 1100.4375 896.699219 1101.574219 Z M 896.699219 1101.574219 " fill-opacity="1" fill-rule="nonzero"/></g></svg>