<svg width="96" height="96" xmlns="http://www.w3.org/2000/svg" xmlns:xlink="http://www.w3.org/1999/xlink" xml:space="preserve" overflow="hidden"><g transform="translate(-718 -202)"><path d="M765 214.5C761.3 212.7 757.5 211.5 753.7 211 764.7 221.9 768 239 760.7 253.7 753.5 268.4 737.7 276 722.5 273.9 725.2 276.6 728.5 279 732.1 280.8 750.4 289.9 772.6 282.4 781.6 264.1 790.6 245.8 783.3 223.7 765 214.5Z"/><path d="M804.9 256.5C804.7 256.2 804.7 255.8 804.9 255.5L806.8 252.7C807 252.3 807 251.9 806.8 251.6 806.6 251.3 806.1 251.1 805.8 251.2L802.7 252C802.3 252.1 801.9 251.9 801.7 251.6L799.8 248.8C799.5 248.4 799.1 248.3 798.7 248.4 798.3 248.5 798 248.9 798 249.3L797.8 252.7C797.8 253.1 797.5 253.4 797.1 253.6L794 254.3C793.6 254.4 793.3 254.7 793.3 255.2 793.3 255.6 793.5 256 793.9 256.1L795.2 256.8 796.9 257.7C797 257.8 797.2 257.9 797.3 258.1 797.4 258.3 797.4 258.4 797.4 258.6L797.4 262C797.4 262.4 797.6 262.8 798 262.9 798.4 263 798.8 262.9 799.1 262.6L801.3 259.9C801.6 259.6 802 259.5 802.4 259.6L805.7 260.8C806.1 260.9 806.5 260.8 806.8 260.5 807.1 260.2 807.1 259.7 806.9 259.4L804.9 256.5Z"/><path d="M795.4 231.6 798.1 226.7C798.4 226.1 799 225.8 799.7 225.9L805.2 226.8C805.9 226.9 806.5 226.6 806.8 226 807.1 225.4 807 224.6 806.6 224.2L802.8 220.1C802.4 219.7 802.3 219 802.5 218.4L804.6 213.3C804.8 212.7 804.7 212 804.3 211.6 803.9 211.2 803.1 211 802.6 211.3L797.9 213.6C797.3 213.9 796.6 213.7 796.2 213.3L792.4 209.5C791.9 209 791.1 208.9 790.5 209.1 789.9 209.4 789.6 210.1 789.6 210.7L790.3 216C790.4 216.7 790.1 217.3 789.5 217.6L784.8 219.9C784.2 220.2 783.9 220.8 784 221.5 784.1 222.1 784.6 222.7 785.2 222.8L787.5 223.5 790.5 224.4C790.8 224.5 791 224.7 791.3 224.9 791.5 225.1 791.6 225.4 791.7 225.7L792.6 231.2C792.7 231.9 793.2 232.4 793.9 232.5 794.6 232.6 795.1 232.2 795.4 231.6Z"/></g></svg>