<svg width="96" height="96" xmlns="http://www.w3.org/2000/svg" xmlns:xlink="http://www.w3.org/1999/xlink" xml:space="preserve" overflow="hidden"><g transform="translate(-861 -208)"><path d="M36.5313 62.2643C36.5357 61.2752 36.5968 60.2872 36.7143 59.3051L21.2319 59.3051 21.2319 65.1456 36.7026 65.1456C36.5918 64.189 36.5345 63.2272 36.5313 62.2643Z" transform="matrix(1 0 0 1.00535 847.93 193.017)"/><path d="M46.2939 42.1199 35.3165 31.149 31.1866 35.2775 42.1589 46.2498C43.3777 44.7222 44.7648 43.3368 46.2939 42.1199Z" transform="matrix(1 0 0 1.00535 847.93 193.017)"/><path d="M62.2695 36.5261C63.2455 36.5301 64.2204 36.5896 65.1897 36.7039L65.1897 21.1891 59.3492 21.1891 59.3492 36.7039C60.3185 36.5894 61.2935 36.5301 62.2695 36.5261Z" transform="matrix(1 0 0 1.00535 847.93 193.017)"/><path d="M82.3787 46.2446 93.351 35.2724 89.2212 31.149 78.2437 42.1251C79.7729 43.338 81.16 44.72 82.3787 46.2446Z" transform="matrix(1 0 0 1.00535 847.93 193.017)"/><path d="M42.1264 78.2398 31.1866 89.177 35.3165 93.3069 46.2498 82.3749C44.7241 81.1562 43.3409 79.769 42.1264 78.2398Z" transform="matrix(1 0 0 1.00535 847.93 193.017)"/><path d="M62.2695 88.0024C61.2935 87.9984 60.3185 87.9391 59.3492 87.8246L59.3492 103.262 65.1897 103.262 65.1897 87.8246C64.2204 87.939 63.2455 87.9983 62.2695 88.0024Z" transform="matrix(1 0 0 1.00535 847.93 193.017)"/><path d="M87.8233 59.3051C88.0651 61.2441 88.069 63.2055 87.835 65.1456L103.311 65.1456 103.311 59.3051Z" transform="matrix(1 0 0 1.00535 847.93 193.017)"/><path d="M78.2878 82.3749 89.2212 93.3069 93.351 89.177 82.4151 78.2398C81.1994 79.7691 79.8149 81.1563 78.2878 82.3749Z" transform="matrix(1 0 0 1.00535 847.93 193.017)"/><path d="M82.8161 62.2643C82.8161 73.6126 73.6165 82.8122 62.2682 82.8122 50.9198 82.8122 41.7202 73.6126 41.7202 62.2643 41.7202 50.9159 50.9198 41.7163 62.2682 41.7163 62.2686 41.7163 62.2691 41.7163 62.2695 41.7163 73.6171 41.7163 82.8161 50.9154 82.8161 62.263 82.8161 62.2634 82.8161 62.2639 82.8161 62.2643Z" transform="matrix(1 0 0 1.00535 847.93 193.017)"/></g></svg>